<mxfile host="app.diagrams.net" modified="2023-11-18T21:01:35.859Z" agent="Mozilla/5.0 (Windows NT 10.0; Win64; x64) AppleWebKit/537.36 (KHTML, like Gecko) Chrome/119.0.0.0 Safari/537.36" etag="arxzFTwzS3Valk4o0bCX" version="22.1.3" type="github">
  <diagram id="C5RBs43oDa-KdzZeNtuy" name="Page-1">
    <mxGraphModel dx="1434" dy="828" grid="1" gridSize="10" guides="1" tooltips="1" connect="1" arrows="1" fold="1" page="1" pageScale="1" pageWidth="827" pageHeight="1169" math="0" shadow="0">
      <root>
        <mxCell id="WIyWlLk6GJQsqaUBKTNV-0" />
        <mxCell id="WIyWlLk6GJQsqaUBKTNV-1" parent="WIyWlLk6GJQsqaUBKTNV-0" />
        <mxCell id="GVuecCbRthxJJ8NPHwU5-7" style="edgeStyle=orthogonalEdgeStyle;rounded=0;orthogonalLoop=1;jettySize=auto;html=1;exitX=1;exitY=0.25;exitDx=0;exitDy=0;entryX=0;entryY=0.25;entryDx=0;entryDy=0;endArrow=ERoneToMany;endFill=0;startArrow=ERzeroToOne;startFill=0;" edge="1" parent="WIyWlLk6GJQsqaUBKTNV-1" source="GVuecCbRthxJJ8NPHwU5-0" target="GVuecCbRthxJJ8NPHwU5-1">
          <mxGeometry relative="1" as="geometry" />
        </mxCell>
        <mxCell id="GVuecCbRthxJJ8NPHwU5-16" value="Commenter" style="edgeLabel;html=1;align=center;verticalAlign=middle;resizable=0;points=[];" vertex="1" connectable="0" parent="GVuecCbRthxJJ8NPHwU5-7">
          <mxGeometry x="-0.1385" y="2" relative="1" as="geometry">
            <mxPoint as="offset" />
          </mxGeometry>
        </mxCell>
        <mxCell id="GVuecCbRthxJJ8NPHwU5-11" style="edgeStyle=orthogonalEdgeStyle;rounded=0;orthogonalLoop=1;jettySize=auto;html=1;exitX=0;exitY=0.5;exitDx=0;exitDy=0;entryX=0;entryY=0.75;entryDx=0;entryDy=0;endArrow=ERoneToMany;endFill=0;startArrow=ERzeroToMany;startFill=0;" edge="1" parent="WIyWlLk6GJQsqaUBKTNV-1" source="GVuecCbRthxJJ8NPHwU5-0" target="GVuecCbRthxJJ8NPHwU5-2">
          <mxGeometry relative="1" as="geometry">
            <mxPoint x="80" y="640" as="targetPoint" />
            <Array as="points">
              <mxPoint x="81" y="230" />
              <mxPoint x="81" y="600" />
            </Array>
          </mxGeometry>
        </mxCell>
        <mxCell id="GVuecCbRthxJJ8NPHwU5-0" value="Users" style="rounded=1;whiteSpace=wrap;html=1;" vertex="1" parent="WIyWlLk6GJQsqaUBKTNV-1">
          <mxGeometry x="110" y="200" width="120" height="60" as="geometry" />
        </mxCell>
        <mxCell id="GVuecCbRthxJJ8NPHwU5-1" value="Comments" style="rounded=1;whiteSpace=wrap;html=1;" vertex="1" parent="WIyWlLk6GJQsqaUBKTNV-1">
          <mxGeometry x="620" y="200" width="120" height="60" as="geometry" />
        </mxCell>
        <mxCell id="GVuecCbRthxJJ8NPHwU5-6" style="edgeStyle=orthogonalEdgeStyle;rounded=0;orthogonalLoop=1;jettySize=auto;html=1;exitX=0;exitY=0.5;exitDx=0;exitDy=0;endArrow=ERzeroToOne;endFill=0;entryX=1;entryY=0.5;entryDx=0;entryDy=0;startArrow=ERoneToMany;startFill=0;" edge="1" parent="WIyWlLk6GJQsqaUBKTNV-1" source="GVuecCbRthxJJ8NPHwU5-2" target="GVuecCbRthxJJ8NPHwU5-0">
          <mxGeometry relative="1" as="geometry">
            <mxPoint x="240" y="230" as="targetPoint" />
          </mxGeometry>
        </mxCell>
        <mxCell id="GVuecCbRthxJJ8NPHwU5-18" value="author" style="edgeLabel;html=1;align=center;verticalAlign=middle;resizable=0;points=[];" vertex="1" connectable="0" parent="GVuecCbRthxJJ8NPHwU5-6">
          <mxGeometry x="-0.1236" relative="1" as="geometry">
            <mxPoint as="offset" />
          </mxGeometry>
        </mxCell>
        <mxCell id="GVuecCbRthxJJ8NPHwU5-2" value="Articles" style="rounded=1;whiteSpace=wrap;html=1;" vertex="1" parent="WIyWlLk6GJQsqaUBKTNV-1">
          <mxGeometry x="320" y="555" width="120" height="60" as="geometry" />
        </mxCell>
        <mxCell id="GVuecCbRthxJJ8NPHwU5-5" style="edgeStyle=orthogonalEdgeStyle;rounded=0;orthogonalLoop=1;jettySize=auto;html=1;exitX=1;exitY=0.5;exitDx=0;exitDy=0;endArrow=ERoneToMany;endFill=0;startArrow=ERzeroToOne;startFill=0;" edge="1" parent="WIyWlLk6GJQsqaUBKTNV-1" source="GVuecCbRthxJJ8NPHwU5-2" target="GVuecCbRthxJJ8NPHwU5-1">
          <mxGeometry relative="1" as="geometry" />
        </mxCell>
        <mxCell id="GVuecCbRthxJJ8NPHwU5-17" value="article" style="edgeLabel;html=1;align=center;verticalAlign=middle;resizable=0;points=[];" vertex="1" connectable="0" parent="GVuecCbRthxJJ8NPHwU5-5">
          <mxGeometry x="0.4478" y="-1" relative="1" as="geometry">
            <mxPoint as="offset" />
          </mxGeometry>
        </mxCell>
        <mxCell id="GVuecCbRthxJJ8NPHwU5-8" style="edgeStyle=orthogonalEdgeStyle;rounded=0;orthogonalLoop=1;jettySize=auto;html=1;exitX=1;exitY=0.75;exitDx=0;exitDy=0;entryX=0.158;entryY=1.033;entryDx=0;entryDy=0;entryPerimeter=0;endArrow=ERmany;endFill=0;startArrow=ERmany;startFill=0;" edge="1" parent="WIyWlLk6GJQsqaUBKTNV-1">
          <mxGeometry relative="1" as="geometry">
            <mxPoint x="230.52" y="245" as="sourcePoint" />
            <mxPoint x="129.48000000000005" y="261.98" as="targetPoint" />
            <Array as="points">
              <mxPoint x="250.52" y="245" />
              <mxPoint x="250.52" y="370" />
              <mxPoint x="129.52" y="370" />
            </Array>
          </mxGeometry>
        </mxCell>
        <mxCell id="GVuecCbRthxJJ8NPHwU5-12" value="Followee" style="edgeLabel;html=1;align=center;verticalAlign=middle;resizable=0;points=[];" vertex="1" connectable="0" parent="GVuecCbRthxJJ8NPHwU5-8">
          <mxGeometry x="0.7272" y="-3" relative="1" as="geometry">
            <mxPoint as="offset" />
          </mxGeometry>
        </mxCell>
        <mxCell id="GVuecCbRthxJJ8NPHwU5-13" value="Follower&amp;nbsp;" style="edgeLabel;html=1;align=center;verticalAlign=middle;resizable=0;points=[];" vertex="1" connectable="0" parent="GVuecCbRthxJJ8NPHwU5-8">
          <mxGeometry x="-0.5349" relative="1" as="geometry">
            <mxPoint as="offset" />
          </mxGeometry>
        </mxCell>
        <mxCell id="GVuecCbRthxJJ8NPHwU5-9" value="Follow" style="rounded=0;whiteSpace=wrap;html=1;dashed=1;opacity=60;" vertex="1" parent="WIyWlLk6GJQsqaUBKTNV-1">
          <mxGeometry x="150" y="360" width="80" height="40" as="geometry" />
        </mxCell>
        <mxCell id="GVuecCbRthxJJ8NPHwU5-14" value="Like" style="rounded=0;whiteSpace=wrap;html=1;dashed=1;opacity=60;" vertex="1" parent="WIyWlLk6GJQsqaUBKTNV-1">
          <mxGeometry x="30" y="590" width="80" height="40" as="geometry" />
        </mxCell>
        <mxCell id="GVuecCbRthxJJ8NPHwU5-19" value="The Blogging App DataBase Schema Design" style="text;html=1;align=center;verticalAlign=middle;resizable=0;points=[];autosize=1;strokeColor=#b85450;fillColor=#f8cecc;rounded=0;fontStyle=5" vertex="1" parent="WIyWlLk6GJQsqaUBKTNV-1">
          <mxGeometry x="240" y="90" width="280" height="30" as="geometry" />
        </mxCell>
      </root>
    </mxGraphModel>
  </diagram>
</mxfile>
